<svg xmlns="http://www.w3.org/2000/svg" viewBox="0 0 800 500">
  <rect width="800" height="500" fill="#f4f1fb"/>
  <rect x="0" y="430" width="800" height="70" fill="#e6dff6"/>

  <!-- vessel -->
  <path d="M 280 140
           L 520 140
           L 520 370
           C 520 400 480 420 400 420
           C 320 420 280 400 280 370
           Z"
        fill="#ffffff" stroke="#442a71" stroke-width="5"/>

  <!-- upper (light) layer -->
  <path d="M 286 200 L 514 200 L 514 268 L 286 268 Z" fill="#c9b9ec"/>
  <!-- lower (dense) layer -->
  <path d="M 286 268 L 514 268 L 514 368
           C 514 396 478 414 400 414
           C 322 414 286 396 286 368 Z" fill="#55348e"/>

  <!-- interface marker -->
  <line x1="260" y1="268" x2="540" y2="268" stroke="#e8792a" stroke-width="4" stroke-dasharray="10 6"/>
  <polygon points="545,258 565,268 545,278" fill="#e8792a"/>

  <!-- side probe with sensor -->
  <rect x="560" y="120" width="26" height="22" rx="5" fill="#241645"/>
  <rect x="570" y="142" width="6" height="126" fill="#241645"/>
  <circle cx="573" cy="268" r="6" fill="#e8792a"/>
</svg>
