<svg xmlns="http://www.w3.org/2000/svg" viewBox="0 0 800 500">
  <rect width="800" height="500" fill="#f4f1fb"/>
  <rect x="0" y="430" width="800" height="70" fill="#e6dff6"/>

  <!-- tank -->
  <rect x="310" y="150" width="180" height="270" rx="18" fill="#ffffff" stroke="#442a71" stroke-width="5"/>
  <ellipse cx="400" cy="150" rx="90" ry="20" fill="#e6dff6" stroke="#442a71" stroke-width="5"/>
  <path d="M 314 260 L 486 260 L 486 402 A 18 18 0 0 1 468 420 L 332 420 A 18 18 0 0 1 314 402 Z" fill="#8763c9"/>
  <line x1="314" y1="260" x2="486" y2="260" stroke="#241645" stroke-width="3" stroke-dasharray="6 6"/>

  <!-- support legs -->
  <rect x="330" y="420" width="16" height="30" fill="#c9b9ec"/>
  <rect x="454" y="420" width="16" height="30" fill="#c9b9ec"/>

  <!-- sensor + cone -->
  <rect x="384" y="70" width="32" height="26" rx="6" fill="#241645"/>
  <rect x="396" y="96" width="8" height="18" fill="#241645"/>
  <polygon points="400,114 358,260 442,260" fill="#f3a25e" opacity="0.4"/>
  <circle cx="400" cy="260" r="5" fill="#e8792a"/>
</svg>
